<svg width="40" height="70" viewBox="0 0 40 70" fill="none" xmlns="http://www.w3.org/2000/svg">
<path d="M39.8313 23.4527V3.69134C39.8302 2.71268 39.4409 1.77443 38.7489 1.08241C38.0568 0.390384 37.1186 0.00109681 36.1399 -6.10352e-05H3.69165C2.71298 0.00109681 1.77473 0.390384 1.08271 1.08241C0.390689 1.77443 0.00140198 2.71268 0.000244141 3.69134V23.4527C0.000574213 23.9686 0.109419 24.4786 0.319711 24.9497C0.530002 25.4208 0.837036 25.8424 1.22087 26.187C0.837036 26.5317 0.530002 26.9533 0.319711 27.4244C0.109419 27.8955 0.000574213 28.4055 0.000244141 28.9214V62.3519C0.00140198 63.3306 0.390689 64.2688 1.08271 64.9608C1.77473 65.6528 2.71298 66.0421 3.69165 66.0433H4.19313V68.98C4.19313 69.2338 4.29396 69.4773 4.47344 69.6567C4.65292 69.8362 4.89635 69.937 5.15017 69.937H11.9861C12.2399 69.937 12.4833 69.8362 12.6628 69.6567C12.8423 69.4773 12.9431 69.2338 12.9431 68.98V66.0433H26.8884V68.98C26.8884 69.2338 26.9893 69.4773 27.1688 69.6567C27.3482 69.8362 27.5917 69.937 27.8455 69.937H34.6814C34.9352 69.937 35.1787 69.8362 35.3581 69.6567C35.5376 69.4773 35.6384 69.2338 35.6384 68.98V66.0433H36.1399C37.1186 66.0421 38.0568 65.6528 38.7489 64.9608C39.4409 64.2688 39.8302 63.3306 39.8313 62.3519V28.9214C39.831 28.4055 39.7222 27.8955 39.5119 27.4244C39.3016 26.9533 38.9945 26.5317 38.6107 26.187C38.9945 25.8424 39.3016 25.4208 39.5119 24.9497C39.7222 24.4786 39.831 23.9686 39.8313 23.4527ZM11.0291 68.023H6.1072V66.0433H11.0291V68.023ZM33.7244 68.023H28.8025V66.0433H33.7244V68.023ZM37.9173 28.9214V62.3519C37.9167 62.8231 37.7293 63.2748 37.3961 63.608C37.0629 63.9412 36.6111 64.1286 36.1399 64.1292H3.69165C3.22045 64.1286 2.76871 63.9412 2.43552 63.608C2.10233 63.2748 1.91489 62.8231 1.91431 62.3519V28.9214C1.91489 28.4502 2.10233 27.9985 2.43552 27.6653C2.76871 27.3321 3.22045 27.1447 3.69165 27.1441H36.1399C36.6111 27.1447 37.0629 27.3321 37.3961 27.6653C37.7293 27.9985 37.9167 28.4502 37.9173 28.9214ZM3.69165 25.23C3.22045 25.2294 2.76871 25.042 2.43552 24.7088C2.10233 24.3756 1.91489 23.9239 1.91431 23.4527V3.69134C1.91489 3.22014 2.10233 2.7684 2.43552 2.43521C2.76871 2.10202 3.22045 1.91458 3.69165 1.914H36.1399C36.6111 1.91458 37.0629 2.10202 37.3961 2.43521C37.7293 2.7684 37.9167 3.22014 37.9173 3.69134V23.4527C37.9167 23.9239 37.7293 24.3756 37.3961 24.7088C37.0629 25.042 36.6111 25.2294 36.1399 25.23H3.69165Z" fill="white"/>
</svg>
