<svg width="141" height="15" viewBox="0 0 141 15" fill="none" xmlns="http://www.w3.org/2000/svg">
<path d="M7.98364 14H0.820557V1.15039H7.98364V2.47754H2.3147V6.61719H7.64087V7.93555H2.3147V12.6641H7.98364V14ZM12.0793 14H10.6204V0.324219H12.0793V14ZM19.2424 14.1758C17.8186 14.1758 16.6936 13.7422 15.8674 12.875C15.0471 12.0078 14.637 10.8037 14.637 9.2627C14.637 7.70996 15.0178 6.47656 15.7795 5.5625C16.5471 4.64844 17.5754 4.19141 18.8645 4.19141C20.0715 4.19141 21.0266 4.58984 21.7297 5.38672C22.4329 6.17773 22.7844 7.22363 22.7844 8.52441V9.44727H16.1487C16.178 10.5781 16.4622 11.4365 17.0012 12.0225C17.5461 12.6084 18.3108 12.9014 19.2952 12.9014C20.3323 12.9014 21.3577 12.6846 22.3713 12.251V13.5518C21.8557 13.7744 21.3665 13.9326 20.9036 14.0264C20.4465 14.126 19.8928 14.1758 19.2424 14.1758ZM18.8469 5.41309C18.0735 5.41309 17.4553 5.66504 16.9924 6.16895C16.5354 6.67285 16.2659 7.37012 16.1838 8.26074H21.22C21.22 7.34082 21.0149 6.6377 20.6047 6.15137C20.1946 5.65918 19.6086 5.41309 18.8469 5.41309ZM29.1301 14.1758C27.7356 14.1758 26.6545 13.748 25.887 12.8926C25.1252 12.0312 24.7444 10.8154 24.7444 9.24512C24.7444 7.63379 25.1311 6.38867 25.9045 5.50977C26.6838 4.63086 27.7913 4.19141 29.2268 4.19141C29.6897 4.19141 30.1526 4.24121 30.6155 4.34082C31.0784 4.44043 31.4417 4.55762 31.7053 4.69238L31.2571 5.93164C30.9348 5.80273 30.5833 5.69727 30.2024 5.61523C29.8215 5.52734 29.4846 5.4834 29.1917 5.4834C27.2346 5.4834 26.2561 6.73145 26.2561 9.22754C26.2561 10.4111 26.4934 11.3193 26.968 11.9521C27.4485 12.585 28.1575 12.9014 29.095 12.9014C29.8977 12.9014 30.7209 12.7285 31.5647 12.3828V13.6748C30.9202 14.0088 30.1086 14.1758 29.1301 14.1758ZM36.97 12.9717C37.2278 12.9717 37.4768 12.9541 37.717 12.9189C37.9573 12.8779 38.1477 12.8369 38.2883 12.7959V13.9121C38.1301 13.9883 37.8958 14.0498 37.5852 14.0967C37.2805 14.1494 37.0051 14.1758 36.759 14.1758C34.8958 14.1758 33.9641 13.1943 33.9641 11.2314V5.50098H32.5842V4.79785L33.9641 4.19141L34.5793 2.13477H35.4231V4.36719H38.218V5.50098H35.4231V11.1699C35.4231 11.75 35.5608 12.1953 35.8362 12.5059C36.1116 12.8164 36.4895 12.9717 36.97 12.9717ZM44.6165 4.19141C45.0442 4.19141 45.428 4.22656 45.7678 4.29688L45.5657 5.65039C45.1672 5.5625 44.8157 5.51855 44.511 5.51855C43.7317 5.51855 43.0637 5.83496 42.5071 6.46777C41.9563 7.10059 41.6809 7.88867 41.6809 8.83203V14H40.2219V4.36719H41.426L41.593 6.15137H41.6633C42.0208 5.52441 42.4514 5.04102 42.9553 4.70117C43.4592 4.36133 44.0129 4.19141 44.6165 4.19141ZM49.0286 14H47.5696V4.36719H49.0286V14ZM47.4465 1.75684C47.4465 1.42285 47.5286 1.17969 47.6926 1.02734C47.8567 0.869141 48.0618 0.790039 48.3079 0.790039C48.5422 0.790039 48.7444 0.869141 48.9143 1.02734C49.0842 1.18555 49.1692 1.42871 49.1692 1.75684C49.1692 2.08496 49.0842 2.33105 48.9143 2.49512C48.7444 2.65332 48.5422 2.73242 48.3079 2.73242C48.0618 2.73242 47.8567 2.65332 47.6926 2.49512C47.5286 2.33105 47.4465 2.08496 47.4465 1.75684ZM55.9719 14.1758C54.5774 14.1758 53.4963 13.748 52.7288 12.8926C51.967 12.0312 51.5862 10.8154 51.5862 9.24512C51.5862 7.63379 51.9729 6.38867 52.7463 5.50977C53.5256 4.63086 54.6331 4.19141 56.0686 4.19141C56.5315 4.19141 56.9944 4.24121 57.4573 4.34082C57.9202 4.44043 58.2834 4.55762 58.5471 4.69238L58.0989 5.93164C57.7766 5.80273 57.425 5.69727 57.0442 5.61523C56.6633 5.52734 56.3264 5.4834 56.0334 5.4834C54.0764 5.4834 53.0979 6.73145 53.0979 9.22754C53.0979 10.4111 53.3352 11.3193 53.8098 11.9521C54.2903 12.585 54.9993 12.9014 55.9368 12.9014C56.7395 12.9014 57.5627 12.7285 58.4065 12.3828V13.6748C57.762 14.0088 56.9504 14.1758 55.9719 14.1758ZM68.4875 12.9717C68.7454 12.9717 68.9944 12.9541 69.2346 12.9189C69.4749 12.8779 69.6653 12.8369 69.8059 12.7959V13.9121C69.6477 13.9883 69.4133 14.0498 69.1028 14.0967C68.7981 14.1494 68.5227 14.1758 68.2766 14.1758C66.4133 14.1758 65.4817 13.1943 65.4817 11.2314V5.50098H64.1018V4.79785L65.4817 4.19141L66.0969 2.13477H66.9407V4.36719H69.7356V5.50098H66.9407V11.1699C66.9407 11.75 67.0784 12.1953 67.3538 12.5059C67.6292 12.8164 68.0071 12.9717 68.4875 12.9717ZM75.8088 14.1758C74.385 14.1758 73.26 13.7422 72.4338 12.875C71.6135 12.0078 71.2034 10.8037 71.2034 9.2627C71.2034 7.70996 71.5842 6.47656 72.3459 5.5625C73.1135 4.64844 74.1418 4.19141 75.4309 4.19141C76.6379 4.19141 77.593 4.58984 78.2961 5.38672C78.9993 6.17773 79.3508 7.22363 79.3508 8.52441V9.44727H72.7151C72.7444 10.5781 73.0286 11.4365 73.5676 12.0225C74.1125 12.6084 74.8772 12.9014 75.8616 12.9014C76.8987 12.9014 77.9241 12.6846 78.9377 12.251V13.5518C78.4221 13.7744 77.9329 13.9326 77.47 14.0264C77.0129 14.126 76.4592 14.1758 75.8088 14.1758ZM75.4133 5.41309C74.6399 5.41309 74.0217 5.66504 73.5588 6.16895C73.1018 6.67285 72.8323 7.37012 72.7502 8.26074H77.7864C77.7864 7.34082 77.5813 6.6377 77.1711 6.15137C76.761 5.65918 76.175 5.41309 75.4133 5.41309ZM87.7708 14L87.4807 12.6289H87.4104C86.9299 13.2324 86.4495 13.6426 85.969 13.8594C85.4944 14.0703 84.8997 14.1758 84.1848 14.1758C83.2297 14.1758 82.4797 13.9297 81.9348 13.4375C81.3958 12.9453 81.1262 12.2451 81.1262 11.3369C81.1262 9.3916 82.6819 8.37207 85.7932 8.27832L87.428 8.22559V7.62793C87.428 6.87207 87.2639 6.31543 86.9358 5.95801C86.6135 5.59473 86.095 5.41309 85.3801 5.41309C84.5774 5.41309 83.6692 5.65918 82.6555 6.15137L82.2073 5.03516C82.6819 4.77734 83.2004 4.5752 83.7629 4.42871C84.3313 4.28223 84.8997 4.20898 85.468 4.20898C86.6165 4.20898 87.4661 4.46387 88.0168 4.97363C88.5735 5.4834 88.8518 6.30078 88.8518 7.42578V14H87.7708ZM84.4749 12.9717C85.3831 12.9717 86.095 12.7227 86.6106 12.2246C87.1321 11.7266 87.3928 11.0293 87.3928 10.1328V9.2627L85.9338 9.32422C84.7737 9.36523 83.9358 9.54688 83.4202 9.86914C82.9104 10.1855 82.6555 10.6807 82.6555 11.3545C82.6555 11.8818 82.8137 12.2832 83.1301 12.5586C83.4524 12.834 83.9006 12.9717 84.4749 12.9717ZM97.9836 9.06934C98.2356 8.71191 98.6194 8.24316 99.135 7.66309L102.246 4.36719H103.978L100.075 8.47168L104.25 14H102.484L99.0823 9.44727L97.9836 10.3965V14H96.5422V0.324219H97.9836V7.5752C97.9836 7.89746 97.9602 8.39551 97.9133 9.06934H97.9836ZM110.069 14.1758C108.645 14.1758 107.52 13.7422 106.694 12.875C105.873 12.0078 105.463 10.8037 105.463 9.2627C105.463 7.70996 105.844 6.47656 106.606 5.5625C107.373 4.64844 108.402 4.19141 109.691 4.19141C110.898 4.19141 111.853 4.58984 112.556 5.38672C113.259 6.17773 113.611 7.22363 113.611 8.52441V9.44727H106.975C107.004 10.5781 107.288 11.4365 107.827 12.0225C108.372 12.6084 109.137 12.9014 110.121 12.9014C111.158 12.9014 112.184 12.6846 113.198 12.251V13.5518C112.682 13.7744 112.193 13.9326 111.73 14.0264C111.273 14.126 110.719 14.1758 110.069 14.1758ZM109.673 5.41309C108.9 5.41309 108.281 5.66504 107.819 6.16895C107.362 6.67285 107.092 7.37012 107.01 8.26074H112.046C112.046 7.34082 111.841 6.6377 111.431 6.15137C111.021 5.65918 110.435 5.41309 109.673 5.41309ZM119.218 12.9717C119.476 12.9717 119.725 12.9541 119.965 12.9189C120.205 12.8779 120.396 12.8369 120.536 12.7959V13.9121C120.378 13.9883 120.144 14.0498 119.833 14.0967C119.529 14.1494 119.253 14.1758 119.007 14.1758C117.144 14.1758 116.212 13.1943 116.212 11.2314V5.50098H114.832V4.79785L116.212 4.19141L116.827 2.13477H117.671V4.36719H120.466V5.50098H117.671V11.1699C117.671 11.75 117.809 12.1953 118.084 12.5059C118.36 12.8164 118.738 12.9717 119.218 12.9717ZM125.581 12.9717C125.839 12.9717 126.088 12.9541 126.328 12.9189C126.569 12.8779 126.759 12.8369 126.9 12.7959V13.9121C126.741 13.9883 126.507 14.0498 126.197 14.0967C125.892 14.1494 125.616 14.1758 125.37 14.1758C123.507 14.1758 122.575 13.1943 122.575 11.2314V5.50098H121.196V4.79785L122.575 4.19141L123.191 2.13477H124.034V4.36719H126.829V5.50098H124.034V11.1699C124.034 11.75 124.172 12.1953 124.448 12.5059C124.723 12.8164 125.101 12.9717 125.581 12.9717ZM130.292 14H128.833V0.324219H130.292V14ZM137.455 14.1758C136.031 14.1758 134.906 13.7422 134.08 12.875C133.26 12.0078 132.85 10.8037 132.85 9.2627C132.85 7.70996 133.231 6.47656 133.992 5.5625C134.76 4.64844 135.788 4.19141 137.077 4.19141C138.284 4.19141 139.24 4.58984 139.943 5.38672C140.646 6.17773 140.997 7.22363 140.997 8.52441V9.44727H134.362C134.391 10.5781 134.675 11.4365 135.214 12.0225C135.759 12.6084 136.524 12.9014 137.508 12.9014C138.545 12.9014 139.571 12.6846 140.584 12.251V13.5518C140.069 13.7744 139.579 13.9326 139.116 14.0264C138.659 14.126 138.106 14.1758 137.455 14.1758ZM137.06 5.41309C136.286 5.41309 135.668 5.66504 135.205 6.16895C134.748 6.67285 134.479 7.37012 134.397 8.26074H139.433C139.433 7.34082 139.228 6.6377 138.818 6.15137C138.407 5.65918 137.822 5.41309 137.06 5.41309Z" fill="white"/>
</svg>
